<svg height='100px' width='100px'  fill="#000000" xmlns:dc="http://purl.org/dc/elements/1.1/" xmlns:cc="http://creativecommons.org/ns#" xmlns:rdf="http://www.w3.org/1999/02/22-rdf-syntax-ns#" xmlns:svg="http://www.w3.org/2000/svg" xmlns="http://www.w3.org/2000/svg" xmlns:sodipodi="http://sodipodi.sourceforge.net/DTD/sodipodi-0.dtd" xmlns:inkscape="http://www.inkscape.org/namespaces/inkscape" version="1.1" x="0px" y="0px" viewBox="0 0 100 100"><g transform="translate(0,-952.36218)"><path style="font-size:medium;font-style:normal;font-variant:normal;font-weight:normal;font-stretch:normal;text-indent:0;text-align:start;text-decoration:none;line-height:normal;letter-spacing:normal;word-spacing:normal;text-transform:none;direction:ltr;block-progression:tb;writing-mode:lr-tb;text-anchor:start;baseline-shift:baseline;opacity:1;color:#000000;fill:#000000;fill-opacity:1;stroke:none;stroke-width:4.00000143000000020;marker:none;visibility:visible;display:inline;overflow:visible;enable-background:accumulate;font-family:Sans;-inkscape-font-specification:Sans" d="M 46.5 6 A 2.0002005 2.0002005 0 0 0 44.71875 7.59375 L 43.71875 12.53125 C 42.941857 12.80212 42.191502 13.10885 41.46875 13.46875 L 37.25 10.6875 A 2.0002005 2.0002005 0 0 0 34.75 10.96875 C 33.237595 12.48512 31.58441 14.00538 30 15.59375 A 2.0002005 2.0002005 0 0 0 29.75 18.125 L 32.59375 22.34375 C 32.23198 23.08235 31.925733 23.84081 31.65625 24.625 L 26.625 25.71875 A 2.0002005 2.0002005 0 0 0 25.03125 27.6875 C 25.031362 29.88294 25.031288 32.02318 25.03125 34.21875 A 2.0002005 2.0002005 0 0 0 26.625 36.15625 L 31.65625 37.25 C 31.925734 38.03419 32.231979 38.79265 32.59375 39.53125 L 29.75 43.78125 A 2.0002005 2.0002005 0 0 0 30 46.28125 C 31.584401 47.8695 33.23747 49.38985 34.75 50.90625 A 2.0002005 2.0002005 0 0 0 37.25 51.1875 L 41.5 48.4375 C 42.221882 48.7953 42.974203 49.106 43.75 49.375 L 44.71875 54.28125 A 2.0002005 2.0002005 0 0 0 46.6875 55.90625 L 53.3125 55.90625 A 2.0002005 2.0002005 0 0 0 55.28125 54.28125 L 56.25 49.375 C 57.025797 49.106 57.778116 48.7953 58.5 48.4375 L 62.75 51.1875 A 2.0002005 2.0002005 0 0 0 65.25 50.90625 C 66.76253 49.38985 68.4156 47.8695 70 46.28125 A 2.0002005 2.0002005 0 0 0 70.25 43.78125 L 67.40625 39.53125 C 67.768026 38.79265 68.074265 38.03419 68.34375 37.25 L 73.375 36.15625 A 2.0002005 2.0002005 0 0 0 74.96875 34.21875 C 74.968714 32.02318 74.968639 29.88294 74.96875 27.6875 A 2.0002005 2.0002005 0 0 0 73.375 25.71875 L 68.34375 24.625 C 68.074266 23.84081 67.768025 23.08235 67.40625 22.34375 L 70.25 18.125 A 2.0002005 2.0002005 0 0 0 70 15.59375 C 68.41559 14.00538 66.762403 12.48512 65.25 10.96875 A 2.0002005 2.0002005 0 0 0 62.75 10.6875 L 58.53125 13.46875 C 57.808496 13.10885 57.058143 12.80212 56.28125 12.53125 L 55.28125 7.59375 A 2.0002005 2.0002005 0 0 0 53.3125 6 L 46.6875 6 A 2.0002005 2.0002005 0 0 0 46.5 6 z M 48.34375 10 L 51.65625 10 L 52.53125 14.3125 A 2.0002005 2.0002005 0 0 0 54 15.84375 C 55.331842 16.1958 56.557422 16.74702 57.75 17.4375 A 2.0002005 2.0002005 0 0 0 59.84375 17.375 L 63.59375 14.9375 C 64.401503 15.72504 65.210577 16.48089 66 17.25 L 63.5 21 A 2.0002005 2.0002005 0 0 0 63.40625 23.09375 C 64.074619 24.24541 64.641262 25.58097 65 26.90625 A 2.0002005 2.0002005 0 0 0 66.5 28.34375 L 70.96875 29.28125 C 70.968733 30.38327 70.968729 31.49192 70.96875 32.59375 L 66.5 33.5625 A 2.0002005 2.0002005 0 0 0 65 35 C 64.641262 36.32529 64.074616 37.62961 63.40625 38.78125 A 2.0002005 2.0002005 0 0 0 63.5 40.90625 L 65.96875 44.625 C 65.179138 45.39411 64.401335 46.18117 63.59375 46.96875 L 59.84375 44.5 A 2.0002005 2.0002005 0 0 0 57.75 44.46875 C 56.557422 45.15923 55.331833 45.67921 54 46.03125 A 2.0002005 2.0002005 0 0 0 52.53125 47.5625 L 51.65625 51.90625 L 48.34375 51.90625 L 47.46875 47.5625 A 2.0002005 2.0002005 0 0 0 46 46.03125 C 44.668167 45.67921 43.442562 45.15923 42.25 44.46875 A 2.0002005 2.0002005 0 0 0 40.15625 44.5 L 36.40625 46.96875 C 35.598665 46.18122 34.820863 45.39412 34.03125 44.625 L 36.5 40.90625 A 2.0002005 2.0002005 0 0 0 36.59375 38.78125 C 35.925391 37.6296 35.358736 36.32529 35 35 A 2.0002005 2.0002005 0 0 0 33.5 33.5625 L 29.03125 32.59375 C 29.031271 31.49192 29.031267 30.38327 29.03125 29.28125 L 33.5 28.34375 A 2.0002005 2.0002005 0 0 0 35 26.90625 C 35.358736 25.58097 35.925387 24.24541 36.59375 23.09375 A 2.0002005 2.0002005 0 0 0 36.5 21 L 34 17.25 C 34.789423 16.48089 35.598497 15.72504 36.40625 14.9375 L 40.15625 17.375 A 2.0002005 2.0002005 0 0 0 42.25 17.4375 C 43.442562 16.74702 44.668158 16.1958 46 15.84375 A 2.0002005 2.0002005 0 0 0 47.46875 14.3125 L 48.34375 10 z M 50 22.90625 C 45.586137 22.90625 41.96875 26.52366 41.96875 30.9375 C 41.96875 35.3514 45.586145 38.96875 50 38.96875 C 54.413861 38.96875 58.03125 35.3514 58.03125 30.9375 C 58.03125 26.52366 54.413869 22.90625 50 22.90625 z M 50 26.90625 C 52.234551 26.90625 54.03125 28.703 54.03125 30.9375 C 54.03125 33.17212 52.234559 34.96875 50 34.96875 C 47.765451 34.96875 45.96875 33.17212 45.96875 30.9375 C 45.96875 28.703 47.765459 26.90625 50 26.90625 z M 87.1875 46.28125 C 85.620795 46.28125 84.204202 46.98641 83.1875 48.03125 L 83.15625 48 C 83.15625 48 83.12537 48.0625 83.125 48.0625 C 83.08009 48.1075 80.382384 50.77775 77.4375 53.71875 C 74.468278 56.68395 71.365962 59.76605 70.4375 60.78125 A 2.0022906 2.0022906 0 1 0 73.40625 63.46875 C 74.03937 62.77635 77.286675 59.5218 80.25 56.5625 C 83.213325 53.6032 85.96875 50.84375 85.96875 50.84375 A 2.0002005 2.0002005 0 0 0 86.03125 50.8125 C 86.377033 50.4487 86.756405 50.28125 87.1875 50.28125 C 88.085326 50.28125 89 51.14225 89 52.53125 C 89 53.12975 88.810458 53.64495 88.53125 54.03125 C 88.52595 54.04125 88.53665 54.0555 88.53125 54.0625 C 88.44396 54.1673 76.48172 68.5217 68.75 77.5625 C 66.614228 80.06 63.679558 82.53125 59.53125 82.53125 L 35.8125 82.53125 C 33.260968 82.53125 30.581345 82.99455 28.5 85.03125 L 22.84375 90.5625 A 2.0002005 2.0002005 0 1 0 25.65625 93.40625 L 31.3125 87.875 C 32.453381 86.7586 33.662418 86.53125 35.8125 86.53125 L 59.53125 86.53125 C 65.27446 86.53125 69.296202 83.06225 71.78125 80.15625 C 79.576571 71.04105 91.65625 56.53125 91.65625 56.53125 A 2.0002005 2.0002005 0 0 0 91.71875 56.4375 C 92.525949 55.3497 93 53.98995 93 52.53125 C 93 49.20915 90.50239 46.28125 87.1875 46.28125 z M 34.4375 61.1875 C 30.19403 61.1875 25.820065 61.78395 22.3125 64.65625 L 7.71875 76.59375 A 2.0085683 2.0085683 0 1 0 10.28125 79.6875 L 24.84375 67.75 C 27.276603 65.7577 30.562232 65.1875 34.4375 65.1875 L 63.875 65.1875 C 64.21734 66.1711 64.174699 67.3732 63.53125 68.5625 C 62.721893 70.0585 61.351447 70.8782 60.6875 70.8125 A 2.0002007 2.0002007 0 0 0 60.5 70.78125 L 41.40625 70.78125 A 2.0002007 2.0002007 0 1 0 41.40625 74.78125 L 60.28125 74.78125 L 60.5 74.78125 L 60.5 74.75 C 63.430326 74.9228 65.753414 72.8571 67.0625 70.4375 C 68.40582 67.9546 68.84399 64.6179 66.84375 62 A 2.0002007 2.0002007 0 0 0 65.25 61.1875 L 34.4375 61.1875 z " transform="translate(0,952.36218)"></path></g></svg>