<svg height='100px' width='100px'  fill="#000000" xmlns="http://www.w3.org/2000/svg" viewBox="0 0 64 64" x="0px" y="0px"><path d="M61,3H41a1,1,0,0,0-1,1V7H34.816A3,3,0,0,0,33,5.184V3a1,1,0,0,0-2,0V5.184a2.982,2.982,0,0,0,0,5.632V21.184A3,3,0,0,0,29.184,23H24V16a1,1,0,0,0-1-1H3a1,1,0,0,0-1,1V32a1,1,0,0,0,1,1H23a1,1,0,0,0,1-1V25h5.184A3,3,0,0,0,31,26.816V37.184a2.982,2.982,0,0,0,0,5.632V53.184A3,3,0,0,0,29.184,55H24V44a1,1,0,0,0-1-1H3a1,1,0,0,0-1,1V60a1,1,0,0,0,1,1H23a1,1,0,0,0,1-1V57h5.184A3,3,0,0,0,31,58.816V61a1,1,0,0,0,2,0V58.816a2.982,2.982,0,0,0,0-5.632V42.816A3,3,0,0,0,34.816,41H40v7a1,1,0,0,0,1,1H61a1,1,0,0,0,1-1V32a1,1,0,0,0-1-1H41a1,1,0,0,0-1,1v7H34.816A3,3,0,0,0,33,37.184V26.816a2.982,2.982,0,0,0,0-5.632V10.816A3,3,0,0,0,34.816,9H40V20a1,1,0,0,0,1,1H61a1,1,0,0,0,1-1V4A1,1,0,0,0,61,3ZM22,31H4V17H22Zm0,28H4V45H22ZM42,33H60V47H42ZM32,57a1,1,0,1,1,1-1A1,1,0,0,1,32,57Zm0-16a1,1,0,1,1,1-1A1,1,0,0,1,32,41Zm0-16a1,1,0,1,1,1-1A1,1,0,0,1,32,25ZM32,9a1,1,0,1,1,1-1A1,1,0,0,1,32,9ZM60,19H42V5H60Z"></path></svg>